<?xml version="1.0" encoding="UTF-8"?>
<svg version="1.1" xmlns="http://www.w3.org/2000/svg" width="512" height="512" opacity="0.6">
  <path d="M0 0 C6.6 0 13.2 0 20 0 C20 66 20 132 20 200 C-46 200 -112 200 -180 200 C-180 193.4 -180 186.8 -180 180 C-120.6 180 -61.2 180 0 180 C0 120.6 0 61.2 0 0 Z" fill="#FFFFFF" transform="translate(492,312)"/>
  <path d="M0 0 C6.6 0 13.2 0 20 0 C20 59.4 20 118.8 20 180 C79.4 180 138.8 180 200 180 C200 186.6 200 193.2 200 200 C134 200 68 200 0 200 C0 134 0 68 0 0 Z" fill="#FFFFFF" transform="translate(0,312)"/>
  <path d="M0 0 C66 0 132 0 200 0 C200 66 200 132 200 200 C193.4 200 186.8 200 180 200 C180 140.6 180 81.2 180 20 C120.6 20 61.2 20 0 20 C0 13.4 0 6.8 0 0 Z" fill="#FFFFFF" transform="translate(312,0)"/>
  <path d="M0 0 C66 0 132 0 200 0 C200 6.6 200 13.2 200 20 C140.6 20 81.2 20 20 20 C20 79.4 20 138.8 20 200 C13.4 200 6.8 200 0 200 C0 134 0 68 0 0 Z" fill="#FFFFFF" transform="translate(0,0)"/>
</svg>
